<svg width="390" height="844" viewBox="0 0 390 844" fill="none" xmlns="http://www.w3.org/2000/svg">
  <rect width="390" height="844" rx="42" fill="#050506"/>
  <rect x="18" y="18" width="354" height="808" rx="36" fill="#070708" stroke="#222226"/>
  <rect x="38" y="42" width="42" height="42" rx="21" fill="#F7F7FA" fill-opacity=".14"/>
  <path d="M59 53v16M51 61h16" stroke="#F7F7FA" stroke-width="3" stroke-linecap="round"/>
  <rect x="132" y="42" width="126" height="52" rx="26" fill="#F7F7FA" fill-opacity=".13" stroke="#FFFFFF" stroke-opacity=".16"/>
  <text x="195" y="64" text-anchor="middle" fill="#FFFFFF" font-family="-apple-system,BlinkMacSystemFont,Segoe UI,sans-serif" font-size="15" font-weight="650">2026年5月20日</text>
  <text x="195" y="83" text-anchor="middle" fill="#FFFFFF" fill-opacity=".66" font-family="-apple-system,BlinkMacSystemFont,Segoe UI,sans-serif" font-size="12">18:42</text>
  <rect x="310" y="42" width="42" height="42" rx="21" fill="#F7F7FA" fill-opacity=".14"/>
  <path d="M322 66l18-10M322 66l18 10M340 56v20" stroke="#F7F7FA" stroke-width="2.6" stroke-linecap="round" stroke-linejoin="round"/>
  <rect x="42" y="108" width="306" height="4" rx="2" fill="#FFFFFF" fill-opacity=".12"/>
  <rect x="42" y="108" width="128" height="4" rx="2" fill="#0A84FF"/>
  <g transform="translate(41 135) rotate(-5 154 230)">
    <rect width="308" height="460" rx="24" fill="#121216"/>
    <clipPath id="photoClip">
      <rect width="308" height="460" rx="24"/>
    </clipPath>
    <g clip-path="url(#photoClip)">
      <rect width="308" height="460" fill="#12202B"/>
      <path d="M0 322C76 236 126 250 184 172C226 115 259 77 308 52V460H0V322Z" fill="#315E7A"/>
      <path d="M0 363C55 294 110 300 176 245C220 208 258 183 308 173V460H0V363Z" fill="#6FA3B4"/>
      <circle cx="248" cy="96" r="37" fill="#FFD36B"/>
      <path d="M0 402C76 330 132 357 198 304C244 267 279 250 308 245V460H0V402Z" fill="#D7DDE1"/>
    </g>
  </g>
  <rect x="87" y="612" width="216" height="44" rx="22" fill="#F7F7FA" fill-opacity=".16" stroke="#FFFFFF" stroke-opacity=".18"/>
  <text x="195" y="640" text-anchor="middle" fill="#FFFFFF" font-family="-apple-system,BlinkMacSystemFont,Segoe UI,sans-serif" font-size="18" font-weight="700">下一张</text>
  <rect x="50" y="690" width="290" height="74" rx="25" fill="#F7F7FA" fill-opacity=".13" stroke="#FFFFFF" stroke-opacity=".14"/>
  <text x="195" y="724" text-anchor="middle" fill="#FFFFFF" font-family="-apple-system,BlinkMacSystemFont,Segoe UI,sans-serif" font-size="16" font-weight="680">上海市 黄浦区</text>
  <text x="195" y="748" text-anchor="middle" fill="#FFFFFF" fill-opacity=".68" font-family="-apple-system,BlinkMacSystemFont,Segoe UI,sans-serif" font-size="13">4032 x 3024 · 3.8 MB</text>
</svg>
